<svg width="718" height="246" xmlns="http://www.w3.org/2000/svg" data-name="Layer 1">
 <g>
  <title>Layer 1</title>
  <text class="cls-1" font-size="96px" font-family="ITCAvantGardeStd-Md, ITC Avant Garde Gothic Std" font-weight="500" fill="#4560a8" y="150.06" x="307.7" id="svg_1">Medisense</text>
  <circle class="cls-2" cx="123.08" cy="123.08002" r="123.08" fill="#4560a8" id="svg_2"/>
  <path class="cls-2" d="m123.08,246.31002a122.81,122.81 0 1 1 48,-9.68a122.55,122.55 0 0 1 -48,9.68zm0,-246.17a122.94,122.94 0 1 0 122.93,122.94a123.08,123.08 0 0 0 -122.93,-122.94z" fill="#4560a8" id="svg_3"/>
  <path class="cls-3" d="m169.43,138.48002a2.67,2.67 0 0 1 -1.89,-4.55a15.35,15.35 0 0 0 0,-21.7a2.67,2.67 0 0 1 3.77,-3.77a20.7,20.7 0 0 1 0,29.24a2.65,2.65 0 0 1 -1.88,0.78z" fill="#fff" id="svg_4"/>
  <path class="cls-3" d="m179.75,151.36002a2.67,2.67 0 0 1 -1.88,-4.55a33.61,33.61 0 0 0 0,-47.46a2.67,2.67 0 1 1 3.77,-3.77a38.94,38.94 0 0 1 0,55a2.66,2.66 0 0 1 -1.89,0.78z" fill="#fff" id="svg_5"/>
  <path class="cls-3" d="m192.84,159.42002a2.67,2.67 0 0 1 -1.88,-4.55a45,45 0 0 0 0,-63.58a2.66,2.66 0 0 1 3.76,-3.77a50.29,50.29 0 0 1 0,71.12a2.65,2.65 0 0 1 -1.88,0.78z" fill="#fff" id="svg_6"/>
  <path class="cls-3" d="m163.76,143.37002l-30.94,0a2.46,2.46 0 0 0 -2.46,2.46l0,43l-40.58,0l0,-43a2.46,2.46 0 0 0 -2.46,-2.46l-22.75,0a20.29,20.29 0 0 1 0,-40.58l22.75,0a2.46,2.46 0 0 0 2.46,-2.46l0,-22.75a20.29,20.29 0 0 1 40.58,0l0,22.75a2.46,2.46 0 0 0 2.46,2.46l30.94,0a2.46,2.46 0 0 0 0,-4.92l-28.48,0l0,-43a2.46,2.46 0 0 0 -2.46,-2.46l-45.5,0a2.46,2.46 0 0 0 -2.46,2.46l0,43l-43,0a2.46,2.46 0 0 0 -2.46,2.46l0,45.5a2.46,2.46 0 0 0 2.46,2.46l43,0l0,43a2.46,2.46 0 0 0 2.46,2.46l45.5,0a2.46,2.46 0 0 0 2.46,-2.46l0,-43l28.48,0a2.46,2.46 0 0 0 0,-4.92z" fill="#fff" id="svg_7"/>
 </g>

</svg>