<svg width="48" height="48" xmlns="http://www.w3.org/2000/svg" enable-background="new 0 0 48 48" version="1">

 <g>
  <title>Layer 1</title>
  <path id="svg_1" d="m29,43l0,-4.6l2.6,0.5c2.9,0.6 5.6,-1.5 5.8,-4.4l0.6,-6.5l2.9,-1.2c1,-0.4 1.4,-1.6 0.8,-2.6l-3.7,-6.2c-0.6,-7.6 -4.9,-15 -16,-15c-11.4,0 -17,8.4 -17,17c0,3.7 1.3,6.9 3.3,9.6c1.8,2.5 2.7,5.5 2.7,8.5l0,4.8l18,0l0,0.1z" fill="#FFB74D"/>
  <polygon id="svg_2" points="29,43 29,38.4 22,37 22,43" fill="#FF9800"/>
  <circle id="svg_3" r="1.5" cy="21.5" cx="33.5" fill="#784719"/>
  <path id="svg_4" d="m21.4,3c-9.1,0 -16.4,7.3 -16.4,16.4c0,11.1 6,11.4 6,18.6l2.6,-0.9c2.1,-0.7 3.9,-2.3 4.7,-4.4l2.8,-6.8l5.9,-2.9l0,-6c0,0 7,-3.8 7,-10.3c-3,-2.5 -8.3,-3.7 -12.6,-3.7z" fill="#FF5722"/>
  <g id="svg_5" fill="#546E7A">
   <path id="svg_6" d="m21,2.1c-0.6,0 -1,0.4 -1,1l0,13.9c0,0.6 0.4,1 1,1s1,-0.4 1,-1l0,-13.9c0,-0.6 -0.4,-1 -1,-1z"/>
   <path id="svg_7" d="m36.9,31.9c-7.9,0 -10.3,-4.9 -10.4,-5.1c-0.2,-0.5 -0.8,-0.7 -1.3,-0.5c-0.5,0.2 -0.7,0.8 -0.5,1.3c0.1,0.3 3,6.3 12.2,6.3c0.6,0 1,-0.4 1,-1s-0.5,-1 -1,-1z"/>
  </g>
  <circle id="svg_8" r="2" cy="33" cx="37" fill="#37474F"/>
  <circle id="svg_9" r="7" cy="23" cx="21" fill="#37474F"/>
  <circle id="svg_10" r="4" cy="23" cx="21" fill="#546E7A"/>
 </g>
</svg>