<svg id="Layer_1" data-name="Layer 1" xmlns="http://www.w3.org/2000/svg" viewBox="0 0 865.67 296.37"><defs><style>.cls-1{fill:#4560a8;}.cls-2{fill:#fff;}</style></defs><path class="cls-1" d="M339.68,140.87V69.82h15.55l22.08,55,21.8-55h15.45v71.05H404.1L404.39,81l-23.53,59.91h-7.39L350,81l.29,59.91Z"/><path class="cls-1" d="M434.43,117.92c.48,10.56,9.7,15.94,17.57,15.94,7,0,12.19-3.36,15.07-8.84h10.37a28.75,28.75,0,0,1-10.56,13A26.55,26.55,0,0,1,452,142.4c-17.09,0-27.65-13.73-27.65-27.55A27.7,27.7,0,0,1,471.2,94.78a28.12,28.12,0,0,1,7.87,23.14Zm34.75-7.78c-.47-6.91-7.39-14.69-17.28-14.49-10.17,0-16.8,7.39-17.28,14.49Z"/><path class="cls-1" d="M541.76,140.87h-9.6v-9.13c-2.88,5.38-8.73,10.66-19.49,10.66-16.42,0-26.78-12.67-26.78-27.74,0-16.23,11.71-27.56,26.59-27.56,10.66,0,17.19,6,19.3,10.08V69.82h10Zm-45.89-26.12c.1,9.6,6.82,18.34,18.34,18.34a18.24,18.24,0,0,0,13-5.47,17.37,17.37,0,0,0,5.09-13.16,17.7,17.7,0,0,0-5.28-12.86,18.39,18.39,0,0,0-31.2,13.06Z"/><path class="cls-1" d="M555,69.82h10V80.38H555Zm0,18.82h10v52.23H555Z"/><path class="cls-1" d="M601.09,102.27c0-4-2.5-7.1-7.59-7-4.89,0-7.58,3.27-7.49,6.72.2,4.13,3.94,6,9.51,7.59,8,2.21,16.7,4.51,17,15.74.19,10.18-8.25,17.09-18.62,17.09-8.26,0-18.53-4.7-19-16.61h9.89c.38,6.34,5.47,8.45,9.21,8.45,4.8,0,8.55-3.36,8.55-7.78-.1-5.18-4-6.91-13.35-10-7.29-2.21-13-5.67-13.15-13.54,0-9.89,8.06-15.84,17.57-15.84,7.2,0,16.61,3.55,17.38,15.17Z"/><path class="cls-1" d="M629.21,117.92c.48,10.56,9.7,15.94,17.57,15.94,7,0,12.2-3.36,15.08-8.84h10.36a28.75,28.75,0,0,1-10.56,13,26.52,26.52,0,0,1-14.88,4.41c-17.09,0-27.65-13.73-27.65-27.55A27.7,27.7,0,0,1,666,94.78a28.16,28.16,0,0,1,7.88,23.14ZM664,110.14c-.48-6.91-7.39-14.69-17.28-14.49-10.18,0-16.8,7.39-17.28,14.49Z"/><path class="cls-1" d="M683.64,88.64h9.41V96.7c2.5-5.37,8.36-9.7,17.67-9.6,16.71.19,21.12,12.29,21.12,23.14v30.63H721.76V112.54c0-9.41-3.65-16.13-13.83-16-9.79.1-14.3,6.24-14.3,15.27v29.09h-10Z"/><path class="cls-1" d="M767.74,102.27c0-4-2.49-7.1-7.58-7-4.9,0-7.59,3.27-7.49,6.72.19,4.13,3.94,6,9.5,7.59,8,2.21,16.71,4.51,17,15.74.19,10.18-8.26,17.09-18.63,17.09-8.25,0-18.53-4.7-19-16.61h9.89c.38,6.34,5.47,8.45,9.22,8.45,4.8,0,8.54-3.36,8.54-7.78-.09-5.18-4-6.91-13.34-10-7.3-2.21-13.06-5.67-13.16-13.54,0-9.89,8.07-15.84,17.57-15.84,7.2,0,16.61,3.55,17.38,15.17Z"/><path class="cls-1" d="M795.87,117.92c.48,10.56,9.7,15.94,17.57,15.94,7,0,12.19-3.36,15.07-8.84h10.37a28.81,28.81,0,0,1-10.56,13,26.55,26.55,0,0,1-14.88,4.41c-17.09,0-27.65-13.73-27.65-27.55a27.7,27.7,0,0,1,46.85-20.07,28.15,28.15,0,0,1,7.87,23.14Zm34.75-7.78c-.48-6.91-7.39-14.69-17.28-14.49-10.17,0-16.8,7.39-17.28,14.49Z"/><path class="cls-1" d="M339.91,221.79v-37h5.9v15.6h15.95v-15.6h5.9v37h-5.9v-16.2H345.81v16.2Z"/><path class="cls-1" d="M378,209.84c.25,5.5,5.05,8.3,9.15,8.3a8.44,8.44,0,0,0,7.85-4.6h5.4a15,15,0,0,1-5.5,6.75,13.8,13.8,0,0,1-7.75,2.3,14.4,14.4,0,1,1,10-24.8,14.63,14.63,0,0,1,4.1,12.05Zm18.1-4.05c-.25-3.6-3.85-7.65-9-7.55-5.3,0-8.75,3.85-9,7.55Z"/><path class="cls-1" d="M434.06,221.79h-5.2V217c-1.9,3.65-5.8,5.55-10.1,5.55-8.75,0-13.95-6.8-13.95-14.4,0-8.3,6.05-14.4,13.95-14.4,5.4,0,8.85,3,10.1,5.6v-4.8h5.2ZM410,208.29c.05,4.05,2.9,9.45,9.5,9.45a8.89,8.89,0,0,0,8.45-5.4,10.23,10.23,0,0,0,1-4.05,8.65,8.65,0,0,0-.8-4,9.08,9.08,0,0,0-8.7-5.6,9.31,9.31,0,0,0-9.4,9.6Z"/><path class="cls-1" d="M440.91,184.79h5.2v37h-5.2Z"/><path class="cls-1" d="M454.86,198.64H450v-4h4.9v-9.8h5.2v9.8h5.25v4h-5.25v23.15h-5.2Z"/><path class="cls-1" d="M469.21,184.79h5.2v13.6c1.6-3.2,5.3-4.65,8.85-4.6,4.25,0,6.95,1.4,8.7,3.8s2.35,5.6,2.35,9.35v14.85h-5.25v-14.6a10.34,10.34,0,0,0-1.55-6.1,6.8,6.8,0,0,0-5.7-2.4,6.89,6.89,0,0,0-5.75,2.5,8.52,8.52,0,0,0-1.65,5.25v15.35h-5.2Z"/><path class="cls-1" d="M546.76,199.34l-6.35,12,7.4,7.55-3.6,3.5-6.6-6.8c-2,3.85-4.85,6.85-10.8,6.85-7.3,0-11.85-5-11.85-10.55,0-5.95,4.9-9.05,8.2-10.8-2.5-2.65-4.15-5-4.25-8.25a8.93,8.93,0,0,1,9.15-8.8,8.78,8.78,0,0,1,9.05,8.65c0,4.95-3.8,7.15-6.6,8.65l6.4,6.5,4.35-8.55Zm-20.35,5c-4.1,2.05-5.75,4.4-5.75,7.1a6.07,6.07,0,0,0,6.35,6c3.7,0,5.45-2.05,7.1-5.25Zm1.65-15.9a4,4,0,0,0-4,4.1c0,2.55,2,4.3,3.4,5.85,3-1.7,4.85-2.95,4.85-5.75a4.13,4.13,0,0,0-4.2-4.2Z"/><path class="cls-1" d="M567.71,221.79v-37h5.9v15.6h15.95v-15.6h5.9v37h-5.9v-16.2H573.61v16.2Z"/><path class="cls-1" d="M630.16,221.79H625V217c-1.9,3.65-5.8,5.55-10.1,5.55-8.75,0-14-6.8-14-14.4,0-8.3,6.05-14.4,14-14.4,5.4,0,8.85,3,10.1,5.6v-4.8h5.2Zm-24-13.5c0,4.05,2.9,9.45,9.5,9.45a8.89,8.89,0,0,0,8.45-5.4,10.23,10.23,0,0,0,1-4.05,8.65,8.65,0,0,0-.8-4,9.08,9.08,0,0,0-8.7-5.6,9.31,9.31,0,0,0-9.4,9.6Z"/><path class="cls-1" d="M637,194.59h5v4.75a11.82,11.82,0,0,1,10.4-5.55c9.35,0,13.75,7.8,13.75,14.55,0,7.7-5.55,14.25-13.7,14.25-5.65,0-9-3.1-10.2-5.3v14.4H637Zm23.85,13.55a9.51,9.51,0,0,0-16.25-6.7,9.69,9.69,0,0,0-2.65,6.8,9.39,9.39,0,0,0,2.7,6.75,9.52,9.52,0,0,0,6.75,2.75,9.31,9.31,0,0,0,9.45-9.55Z"/><path class="cls-1" d="M671.41,194.59h5v4.75a11.82,11.82,0,0,1,10.4-5.55c9.35,0,13.75,7.8,13.75,14.55,0,7.7-5.55,14.25-13.7,14.25-5.65,0-9-3.1-10.2-5.3v14.4h-5.2Zm23.85,13.55a9.51,9.51,0,0,0-16.25-6.7,9.69,9.69,0,0,0-2.65,6.8,9.39,9.39,0,0,0,2.7,6.75,9.52,9.52,0,0,0,6.75,2.75,9.31,9.31,0,0,0,9.45-9.55Z"/><path class="cls-1" d="M705.81,184.79H711v5.5h-5.2Zm0,9.8H711v27.2h-5.2Z"/><path class="cls-1" d="M717.81,194.59h4.9v4.2c1.3-2.8,4.35-5,9.2-5,8.7.1,11,6.4,11,12.05v15.95h-5.25V207c0-4.9-1.9-8.4-7.2-8.35-5.1.05-7.45,3.25-7.45,7.95v15.15h-5.2Z"/><path class="cls-1" d="M753,209.84c.25,5.5,5,8.3,9.15,8.3a8.44,8.44,0,0,0,7.85-4.6h5.4a15,15,0,0,1-5.5,6.75,13.8,13.8,0,0,1-7.75,2.3,14.4,14.4,0,1,1,10-24.8,14.67,14.67,0,0,1,4.1,12.05Zm18.1-4.05c-.25-3.6-3.85-7.65-9-7.55s-8.75,3.85-9,7.55Z"/><path class="cls-1" d="M793.31,201.69c0-2.1-1.3-3.7-3.95-3.65s-4,1.7-3.9,3.5c.1,2.15,2,3.15,4.95,4,4.15,1.15,8.7,2.35,8.85,8.2.1,5.3-4.3,8.9-9.7,8.9-4.3,0-9.65-2.45-9.9-8.65h5.15a4.56,4.56,0,0,0,4.8,4.4,4.2,4.2,0,0,0,4.45-4.05c0-2.7-2.1-3.6-6.95-5.2-3.8-1.15-6.8-3-6.85-7.05,0-5.15,4.2-8.25,9.15-8.25,3.75,0,8.65,1.85,9.05,7.9Z"/><path class="cls-1" d="M816.61,201.69c0-2.1-1.3-3.7-4-3.65s-3.95,1.7-3.9,3.5c.1,2.15,2,3.15,5,4,4.15,1.15,8.7,2.35,8.85,8.2.1,5.3-4.3,8.9-9.7,8.9-4.3,0-9.65-2.45-9.9-8.65h5.15a4.56,4.56,0,0,0,4.8,4.4,4.2,4.2,0,0,0,4.45-4.05c-.05-2.7-2.1-3.6-7-5.2-3.8-1.15-6.8-3-6.85-7.05,0-5.15,4.2-8.25,9.15-8.25,3.75,0,8.65,1.85,9,7.9Z"/><circle class="cls-1" cx="148.23" cy="148.19" r="123.08"/><path class="cls-1" d="M148.23,271.42a123.27,123.27,0,0,1-48-236.78A123.26,123.26,0,0,1,196.2,261.73,122.38,122.38,0,0,1,148.23,271.42Zm0-246.17A122.94,122.94,0,1,0,271.17,148.19,123.07,123.07,0,0,0,148.23,25.25Z"/><path class="cls-2" d="M194.58,163.59A2.67,2.67,0,0,1,192.7,159a15.38,15.38,0,0,0,0-21.71,2.67,2.67,0,1,1,3.77-3.77,20.71,20.71,0,0,1,0,29.25A2.67,2.67,0,0,1,194.58,163.59Z"/><path class="cls-2" d="M204.91,176.46a2.67,2.67,0,0,1-1.88-4.55,33.59,33.59,0,0,0,0-47.45,2.67,2.67,0,0,1,3.77-3.77,38.93,38.93,0,0,1,0,55A2.69,2.69,0,0,1,204.91,176.46Z"/><path class="cls-2" d="M218,184.53a2.63,2.63,0,0,1-1.89-.79,2.66,2.66,0,0,1,0-3.76,45,45,0,0,0,0-63.58,2.67,2.67,0,0,1,3.77-3.77,50.28,50.28,0,0,1,0,71.11A2.62,2.62,0,0,1,218,184.53Z"/><path class="cls-2" d="M188.92,168.48H158a2.46,2.46,0,0,0-2.46,2.45v43H114.93v-43a2.45,2.45,0,0,0-2.45-2.45H89.73a20.29,20.29,0,0,1,0-40.58h22.75a2.46,2.46,0,0,0,2.45-2.46V102.69a20.29,20.29,0,0,1,40.58,0v22.75A2.46,2.46,0,0,0,158,127.9h30.95a2.46,2.46,0,1,0,0-4.92H160.43v-43A2.46,2.46,0,0,0,158,77.48H112.48A2.46,2.46,0,0,0,110,79.94v43H67a2.46,2.46,0,0,0-2.46,2.46v45.49A2.46,2.46,0,0,0,67,173.39h43v43a2.46,2.46,0,0,0,2.46,2.46H158a2.46,2.46,0,0,0,2.46-2.46v-43h28.49a2.46,2.46,0,1,0,0-4.91Z"/></svg>