<svg xmlns="http://www.w3.org/2000/svg" viewBox="0 0 32 32"><defs><style>.cls-1{fill:#30acc2;}.cls-2{fill:#d1e6e9;}.cls-3{fill:#68c7d3;}.cls-4{fill:#a1d8df;}</style></defs><title>Medical Record</title><g id="Medical_Record" data-name="Medical Record"><rect class="cls-1" x="5" y="5" width="22" height="26"/><rect class="cls-2" x="5" y="9" width="22" height="18" transform="translate(34 2) rotate(90)"/><path class="cls-3" d="M19,4a3,3,0,0,0-6,0H10V8H22V4Z"/><path class="cls-2" d="M17,4a1,1,0,0,1-2,0A1,1,0,0,1,17,4Z"/><rect class="cls-3" x="11" y="12" width="2" height="6"/><rect class="cls-3" x="11" y="12" width="2" height="6" transform="translate(27 3) rotate(90)"/><rect class="cls-4" x="9" y="21" width="14" height="2"/><rect class="cls-4" x="9" y="25" width="14" height="2"/><rect class="cls-4" x="17" y="12" width="6" height="2"/><rect class="cls-4" x="17" y="16" width="6" height="2"/></g></svg>