<?xml version="1.0" encoding="iso-8859-1"?>
<!-- Generator: Adobe Illustrator 16.0.0, SVG Export Plug-In . SVG Version: 6.00 Build 0)  -->
<!DOCTYPE svg PUBLIC "-//W3C//DTD SVG 1.1//EN" "http://www.w3.org/Graphics/SVG/1.1/DTD/svg11.dtd">
<svg version="1.1" id="Capa_1" xmlns="http://www.w3.org/2000/svg" xmlns:xlink="http://www.w3.org/1999/xlink" x="0px" y="0px"
	 width="909.046px" height="909.046px" viewBox="0 0 909.046 909.046" style="enable-background:new 0 0 909.046 909.046;"
	 xml:space="preserve">
<g>
	<g>
		<path d="M3.228,565.358l47.3,111.1c8.7,20.301,32.2,29.801,52.5,21.102l55.6-23.701l-78.7-184.699l-55.6,23.699
			C4.028,521.56-5.472,545.06,3.228,565.358z"/>
		<path d="M390.028,357.159l-268.7,114.401l78.7,184.699l242.6-103.301l36.4-70.699c2.7-5.199,0.3-11.6-5-13.801l-98.3-41l27.3-56.8
			C406.928,362.359,398.428,353.559,390.028,357.159z"/>
		<path d="M507.528,549.06l307.8,108.898c20.8,7.4,43.7-3.5,51.1-24.398l40.301-113.9c7.399-20.801-3.5-43.701-24.4-51.1
			l-282.2-99.701l-73.399,29.3c-5.301,2.101-7.801,8.3-5.4,13.5l44.9,97l-58.801,21.6
			C498.628,533.458,498.729,545.958,507.528,549.06z"/>
		<path d="M44.128,455.358c2.1,1.9,4.4,3.6,6.9,5.1c-5.1-3.1,20.5-38.899,23.3-42.399c11.6-14.4,24.9-27.3,37.3-41
			c17-18.9,32.2-39.8,41.3-63.5c9.7-25.2,12.8-55.3,1.4-80.6c-4-8.9-11.5-19.5-20-24.7c4.1,2.6-19,37.1-21.4,40.5
			c-10.3,14.6-22,28.2-33.4,41.9c-19.8,23.8-39.4,48.9-48.8,78.4C22.428,395.259,22.028,435.359,44.128,455.358z"/>
	</g>
</g>
<g>
</g>
<g>
</g>
<g>
</g>
<g>
</g>
<g>
</g>
<g>
</g>
<g>
</g>
<g>
</g>
<g>
</g>
<g>
</g>
<g>
</g>
<g>
</g>
<g>
</g>
<g>
</g>
<g>
</g>
</svg>
