<?xml version="1.0" encoding="utf-8"?>
<!-- Generator: Adobe Illustrator 16.0.0, SVG Export Plug-In . SVG Version: 6.00 Build 0)  -->
<!DOCTYPE svg PUBLIC "-//W3C//DTD SVG 1.1//EN" "http://www.w3.org/Graphics/SVG/1.1/DTD/svg11.dtd">
<svg version="1.1" id="Layer_1" xmlns="http://www.w3.org/2000/svg" xmlns:xlink="http://www.w3.org/1999/xlink" x="0px" y="0px"
	 width="1024px" height="733px" viewBox="0 0 1024 733" enable-background="new 0 0 1024 733" xml:space="preserve">
<g>
	<ellipse opacity="0.2" cx="536.257" cy="679.271" rx="376.742" ry="15.082"/>
	<g>
		<path fill="#155288" d="M516.93,525.944c0,0,16.71-46.306-30.197-43.329c-46.906,2.979-193.998,16.43-193.998,16.43v26.803
			L516.93,525.944z"/>
		<path fill="#226BAF" d="M292.167,499.535l-76.688-319.224h166.778c0,0,32.759,39.681,8.936,82.864c0,0,42.68,68.422,8.681,116.073
			c0,0,34.977,57.575,13.148,109.218L292.167,499.535z"/>
		<path fill="#155288" d="M301.879,498.678c0,0,9.645-80.789-21.625-110.57c0,0,10.422-93.813-23.826-125.084
			c0,0,5.956-72.222-40.95-83.016l76.688,319.561L301.879,498.678z"/>
		<path fill="#155288" d="M386.351,263.023c0,0-63.36-7.073-126.981,0C259.37,263.023,351.358,270.469,386.351,263.023z"/>
		<path fill="#155288" d="M396.775,378.801c0,0-71.477-4.096-113.544,8.189C283.231,386.99,361.037,386.619,396.775,378.801z"/>
		<path fill="#155288" d="M358.431,263.106c0,0,7.818-23.163-3.722-44.755c0,0,6.328,34.042-1.49,44.755
			c0,0,11.54,23.37,10.424,40.495C363.644,303.602,369.971,288.876,358.431,263.106z"/>
		<path fill="#155288" d="M308.73,263.172c0,0,5.82-23.744-7.514-44.277c0,0,9.201,33.381,2.321,44.72
			c0,0,13.488,22.304,13.831,39.462C317.368,303.078,322.421,287.868,308.73,263.172z"/>
		<path fill="#155288" d="M365.876,380c0,0,11.038-23.164-0.502-44.755c0,0,3.109,34.043-4.709,44.755
			c0,0,11.54,23.37,10.424,40.494C371.089,420.494,377.417,405.77,365.876,380z"/>
		<path fill="#155288" d="M323.622,380.065c0,0,7.992-23.744-5.342-44.277c0,0,7.028,33.382,0.149,44.721
			c0,0,13.486,22.304,13.829,39.462C332.258,419.971,337.313,404.761,323.622,380.065z"/>
		<polygon fill="#CAD8D7" points="391.211,526.309 391.211,648.738 371.833,648.738 365.132,526.309 		"/>
		<polygon fill="#98A3A2" points="474.929,648.11 299.833,638.024 299.833,655.835 474.659,655.835 		"/>
		<circle fill="#2A3836" cx="459.689" cy="666.566" r="12.284"/>
		<circle fill="#2A3836" cx="315.247" cy="666.566" r="12.285"/>
		<circle fill="#2A3836" cx="365.131" cy="666.566" r="12.285"/>
		<polygon fill="#98A3A2" points="391.211,526.309 391.211,552.651 367.688,572.484 365.132,526.309 		"/>
	</g>
	<g>
		<rect x="643.832" y="343.333" fill="#373534" width="92.376" height="23.841"/>
		<rect x="736.208" y="365.142" fill="#373534" width="56.946" height="2.032"/>
		<rect x="736.208" y="343.333" fill="#373534" width="56.946" height="2.033"/>
		<rect x="736.208" y="345.366" fill="#E9F3FF" width="53.194" height="19.776"/>
		<rect x="648.12" y="349.443" fill="#E9F3FF" width="55.772" height="9.946"/>
	</g>
	<g>
		<rect x="633.302" y="319.491" fill="#F2C406" width="92.376" height="23.842"/>
		<rect x="725.678" y="341.299" fill="#F2C406" width="56.947" height="2.034"/>
		<rect x="725.678" y="319.491" fill="#F2C406" width="56.947" height="2.032"/>
		<rect x="725.678" y="321.523" fill="#E9F3FF" width="53.192" height="19.776"/>
		<rect x="637.591" y="325.602" fill="#E9F3FF" width="55.771" height="9.944"/>
	</g>
	<g>
		<rect x="655.385" y="295.649" fill="#0194BF" width="92.377" height="23.841"/>
		<rect x="747.762" y="317.458" fill="#0194BF" width="56.947" height="2.033"/>
		<rect x="747.762" y="295.649" fill="#0194BF" width="56.947" height="2.032"/>
		<rect x="747.762" y="297.682" fill="#E9F3FF" width="53.194" height="19.776"/>
		<rect x="659.674" y="301.759" fill="#E9F3FF" width="55.772" height="9.946"/>
	</g>
	<g>
		<path fill="#FFD700" d="M584.784,364.541h4.638c9.638,0,17.481-9.173,17.481-20.449c0-11.278-7.844-20.453-17.481-20.453h-4.638
			v5.647h4.638c6.525,0,11.832,6.642,11.832,14.806c0,8.162-5.307,14.801-11.832,14.801h-4.638V364.541z"/>
	</g>
	<rect x="554.333" y="321.523" fill="#F2C406" width="35.392" height="45.534"/>
	<g>
		<path fill="#CBDAED" d="M462.163,218.233c0,0,19.764,21.212,47.478,70.49c39.923,70.987-4.465,70.866-4.465,70.866
			s-26.396-17.381-53.441-79.225C442.742,259.808,459.706,222.659,462.163,218.233z"/>
		<g>
			<path fill="#503E3E" d="M524.538,636.248c0,0-3.919,20.475-0.962,34.669h94.828c0,0,3.648-21.041-37.753-20.992l-26.56-17.953
				L524.538,636.248z"/>
			<path fill="#2A2221" d="M523.399,678.901h31.413l0.389-5.892c0,0,13.236,5.161,31.297,5.161c8.779,0,31.829,0.148,31.829,0.148
				v-7.402h-94.928V678.901z"/>
			<path fill="#685C5C" d="M583.325,649.663c0,0,1.398,14.671,34.259,13.975C617.584,663.638,613.058,650.281,583.325,649.663z"/>
			<path fill="#2A2221" d="M554.333,670.917c0,0-0.922-24.105-31.217-24.252c0,0-1.608,16.268,0.757,24.252H554.333z"/>
		</g>
		<path fill="#0F1417" d="M467.241,425.563c0,0,114.79,2.664,116.564,35.488c1.774,32.825-15.97,176.974-15.97,176.974
			s-19.813,10.22-47.02-1.987l4.782-131.825c0,0-0.347-12.109-13.95-13.885c-13.604-1.774-129.822,16.355-117.254-61.316
			L467.241,425.563z"/>
		<g>
			<path fill="#503E3E" d="M442.918,636.248c0,0-3.919,20.475-0.961,34.669h95.223c0,0,3.253-21.041-38.147-20.992l-26.56-17.953
				L442.918,636.248z"/>
			<path fill="#2A2221" d="M441.78,678.901h31.414l0.388-5.892c0,0,13.236,5.161,31.297,5.161c8.78,0,31.829,0.148,31.829,0.148
				v-7.402H441.78V678.901z"/>
			<path fill="#685C5C" d="M501.706,649.663c0,0,1.398,14.671,34.258,13.975C535.964,663.638,531.438,650.281,501.706,649.663z"/>
			<path fill="#2A2221" d="M472.713,670.917c0,0-0.922-24.105-31.217-24.252c0,0-1.608,16.268,0.757,24.252H472.713z"/>
		</g>
		<path fill="#222323" d="M337.605,429.011c0,0-8.678,57.693,13.079,60.532l66.882,5.316l20.743,151.823
			c0,0,17.566,9.546,50.392-6.423L476.409,483.65c0,0-6.872-45.02-68.851-49.157L337.605,429.011z"/>
		<path fill="#D4D6D5" d="M364.021,205.064c17.947-3.911,39.954-6.208,62.721-2.627c-0.144,14.856-0.576,79.012-15.191,130.005
			C411.55,332.443,370.522,239.272,364.021,205.064z"/>
		<polygon fill="#0092BD" points="413.263,223.028 405.11,237.418 425.007,325.47 411.516,342.945 397.539,330.258 396.189,238.072 
			389.106,226.703 399.189,212.046 		"/>
		<g>
			<path fill="#FAA284" d="M412.443,195.461l0.603,21.949l-36.36,1l-0.785-28.554C391.18,196.785,406.25,196.207,412.443,195.461z"
				/>
			<path fill="#EF8D72" d="M375.9,190.856l-0.604-21.996l36.36-1l0.787,28.601C406.25,197.207,391.18,197.785,375.9,190.856z"/>
		</g>
		<path fill="#DFECFE" d="M321.596,219.242c0,0,20.719-11.311,45.942-16.808c6.501,34.207,44.012,130.009,44.012,130.009
			c14.616-50.993,11.57-116.466,11.713-131.322c11.479,1.807,27.454,10.012,38.899,17.112c0,0,13.898,50.786,7.111,208.407
			c0,0-49.44,18.052-131.668,2.37c0,0-1.708-89.314-4.994-142.735C332.611,286.275,324.977,246.374,321.596,219.242z"/>
		<path fill="#F0F2F1" d="M412.505,194.205c0,0-1.681,12.686-13.316,17.841c0,0-21.663-3.707-23.19-17.869l-10.928,10.664
			c0,0,6.693,20.273,23.48,26.534l10.493-15.999l14.261,13.197c0,0,13.188-15.785,12.058-26.102L412.505,194.205z"/>
		<path fill="#E9F3FF" d="M434.458,249.52l6.349,5.767c0,0-16.97,66.754-29.167,90.954c0,0-35.204-58.971-46.289-84.74l5.299-8.408
			l-11.622-3.571c0,0-4.658-24.392-3.353-44.021c3.79-1.127,7.766-2.175,11.864-3.067c6.501,34.207,44.012,130.009,44.012,130.009
			c14.616-50.993,11.57-116.466,11.713-131.322c3.372,0.53,7.223,2.049,11.041,3.011l7.962,37.809L434.458,249.52z"/>
		<g>
			<path fill="#3B221D" d="M367.183,85.379c0,0,35.028,16.674,43.464,15.757c8.438-0.916,35.458-13.855,35.458-13.855
				c3.474,16.224-5.047,30.293-5.047,30.293l-76.127,17.58l-12.836,3.377c-3.479-13.735-6.432-27.821-6.406-35.907
				C361.375,99.057,367.183,85.379,367.183,85.379z"/>
			<path fill="#502F26" d="M355.326,76.134c6.844-27.575,53.904-29.458,53.904-29.458c24.733-15.04,15.448,4.2,15.448,4.2
				c41.38-14.807,21.67,22.458,21.67,22.458c15.319-0.539-0.243,13.946-0.243,13.946s-27.019,12.94-35.458,13.855
				c-8.437,0.917-42.98-14.302-42.98-14.302s-6.292,12.223-21.979,15.79C345.77,78.076,355.326,76.134,355.326,76.134z"/>
			<path fill="#FAA284" d="M355.349,128.551l5.714,4.819c1.201-2.854,2.177-5.833,2.974-8.836
				c4.618-17.379,3.146-39.156,3.146-39.156c39.924,15.49,74.06,4.287,74.06,4.287c-1.908,19.801,4.647,63.445-10.527,85.839
				c-4.522,6.673-10.237,12.273-19.826,13.775c-41.771,6.541-52.506-34.326-52.506-34.326s-13.093,3.488-15.761-15.809
				C340.411,123.161,355.349,128.551,355.349,128.551z"/>
			<path fill="#EF8D72" d="M373.092,92.474c0,0-3.351,18.438-8.44,29.573c3.861-16.587,2.532-36.668,2.532-36.668
				c39.924,15.49,74.06,4.287,74.06,4.287c-0.208,2.16-0.29,4.628-0.298,7.314C425.418,99.136,397.607,101.044,373.092,92.474z"/>
			<path fill="#502F26" d="M418.145,133.591c0.035,3.592,2.215,6.336,4.873,6.121c2.656-0.213,4.781-3.298,4.746-6.894
				c-0.037-3.593-2.218-6.336-4.874-6.123C420.233,126.908,418.107,129.995,418.145,133.591z"/>
			<path fill="#502F26" d="M381.632,132.528c0.035,3.594,2.217,6.336,4.875,6.123c2.656-0.213,4.782-3.3,4.746-6.893
				c-0.037-3.595-2.22-6.336-4.874-6.124C383.723,125.847,381.596,128.935,381.632,132.528z"/>
			<g>
				<path fill="#DB7C65" d="M405.198,153.986c8.078,3.264,12.431-0.537,12.755-4.358c0.213-2.488-1.198-4.697-3.589-5.633
					c-4.921-1.921-8.39-9.49-8.425-9.568l0,0c-0.022,1.74,1.733,8.281,7.977,11.912c1.35,0.786,2.19,1.614,2.087,2.844
					C415.822,151.325,412.727,154.523,405.198,153.986L405.198,153.986z"/>
			</g>
			<g>
				<path fill="#502F26" d="M434.558,115.049l0.354-2.432c-0.527-0.042-8.865-2.311-18.646-1.487l-0.086,3.814
					C424.192,113.759,434.43,115.04,434.558,115.049z"/>
			</g>
			<g>
				<path fill="#502F26" d="M375.271,116.323c6.538-2.535,18.655-3.006,18.77-3.032l-0.797-3.478
					c-0.477,0.098-11.466,0.48-18.79,4.394L375.271,116.323z"/>
			</g>
			<path fill="#674434" d="M442.891,47.536c0,0-17.418,17.115-58.091,17.074c0,0,26.566,18.528,62.753,6.179
				C447.554,70.788,456.782,48.828,442.891,47.536z"/>
			<path fill="#EF8D72" d="M361.559,150.14c3.549,10.35,16.782,35.856,45.325,34.303c15.446-0.84,23.285-11.031,28.433-18.146
				c-1.22,3.348-2.731,6.448-4.601,9.208c-4.522,6.673-10.237,12.273-19.826,13.775c-41.771,6.541-52.506-34.326-52.506-34.326
				s-10.022,2.799-14.458-9.968C351.722,157.938,361.559,150.14,361.559,150.14z"/>
			<g>
				<path fill="#823321" d="M391.156,159.602c0,0,15.202,3.105,29.335,0c0,0-2.502,13.002-14.667,12.975
					C394.356,172.553,391.289,162.116,391.156,159.602z"/>
				<path fill="#FFFFFF" d="M406.148,165.813c9.35,0,12.095-3.878,13.273-5.99c-10.972,2.166-19.816,0.872-27.52-0.082
					C392.734,162.087,397.333,165.813,406.148,165.813z"/>
			</g>
		</g>
		<g>
			<path fill="#E9F3FF" d="M465.245,312.497c0,0,6.259-10.277,23.568-5.593c34.94,9.451,39.068,21.521,36.829,36.042
				c-3.27,21.225-25.169,28.1-57.761-8.425C456.72,322.015,465.245,312.497,465.245,312.497z"/>
			
				<ellipse transform="matrix(-0.9864 0.1645 -0.1645 -0.9864 1008.8865 563.7894)" fill="#F0F2F1" cx="481.092" cy="323.681" rx="17.707" ry="16.066"/>
			<polygon fill="#211717" points="449.128,274.891 442.821,334.888 445.457,343.751 449.88,335.631 456.188,275.634 			"/>
			<path fill="#FAA284" d="M452.675,335.106l-5.48-8.472c0,0-1.851,1.075-5.898-1.914l1.72-4.045c0,0-2.956-2.904-1.907-5.815
				c1.046-2.913,9.876-16.548,17.532-18.828c7.655-2.28,26.851,17.799,26.851,17.799s7.872,11.888-2.606,17.662
				c-10.478,5.772-15.792,0.983-15.792,0.983S457.926,342.875,452.675,335.106z"/>
		</g>
		<g>
			<path fill="#CBDAED" d="M322.12,219.739c0,0-18.747-1.994-47.58,126.256c0,0-0.591,20.656,18.112,21.445
				c18.706,0.788,71.284,0.788,71.284,0.788s12.97-13.888,1.04-34.542l-38.892-6.492l9.236-30.301
				C335.32,296.892,337.315,246.468,322.12,219.739z"/>
			<path fill="#F0F2F1" d="M360.621,338.229c0,0-8.454,15.968-1.356,28.389h13.751c0,0,9.26-12.128,1.747-26.989L360.621,338.229z"
				/>
			<path fill="#FAA284" d="M370.812,344.879c0,0,29.157-2.728,35.618,0.986c6.462,3.711,28.4,15.688,26.527,20.698
				c0,0-2.343,2.627-9.018,1.052c-6.674-1.577-14.035,0.398-25.513-2.284l-5.595-2.027c0,0-13.924,6.981-22.051-1.451
				C362.652,353.421,370.812,344.879,370.812,344.879z"/>
		</g>
		<path fill="#DFECFE" d="M337.605,411.559c0,0-12.94,46.576,3.916,78.958c0,0,31.292,2.71,47.585-11.065
			c16.291-13.775,25.606-48.079,65.981-28.785l-15.534-15.25c0,0,52.798,14.661,59.205,18.283c0,0,2.01-18.771,19.753-24.688
			c0,0-36.374-9.468-51.9-11.686C451.086,415.107,337.605,411.559,337.605,411.559z"/>
		<rect x="389.437" y="363.956" fill="#DDD9DA" width="126.866" height="3.549"/>
	</g>
	<g>
		<g>
			<polygon fill="#9B9B9B" points="334.207,678.464 344.333,678.464 279.651,383.471 269.525,385.708 			"/>
			<polygon fill="#9B9B9B" points="214.427,678.464 204.304,678.464 268.982,383.471 279.111,385.708 			"/>
		</g>
		<polygon fill="#9B9B9B" points="234.771,539.498 409.554,539.498 409.554,530.967 236.641,530.967 		"/>
		<g>
			<polygon fill="#DDD9DA" points="436.833,678.464 446.959,678.464 382.279,383.471 372.153,385.708 			"/>
			<polygon fill="#DDD9DA" points="317.055,678.464 306.93,678.464 371.608,383.471 381.738,385.708 			"/>
		</g>
	</g>
	<rect x="374.814" y="366.956" fill="#8BACCD" width="511.172" height="19.163"/>
	<rect x="204.304" y="366.956" fill="#759DC3" width="170.51" height="19.163"/>
	<rect x="739.87" y="386.135" fill="#DDD9DA" width="129.526" height="292.766"/>
	<rect x="630.747" y="386.135" fill="#BAB9B9" width="109.123" height="292.766"/>
	<polygon fill="#9B9B9B" points="739.982,386.135 630.747,386.135 630.747,479.451 	"/>
	<g>
		<path fill="#373534" d="M570.797,352.138l2.257,0.827c-0.446,0.604-0.801,1.042-1.063,1.313c-1.331,1.339-2.954,2.008-4.87,2.008
			c-1.898,0-3.507-0.658-4.823-1.975c-1.317-1.317-1.976-2.877-1.976-4.68c0-1.802,0.658-3.36,1.976-4.672
			c1.316-1.313,2.925-1.969,4.823-1.969c1.916,0,3.522,0.648,4.817,1.943c0.297,0.297,0.669,0.748,1.115,1.352l-2.257,0.84
			c-0.315-0.394-0.53-0.652-0.644-0.774c-0.849-0.84-1.859-1.26-3.032-1.26s-2.191,0.436-3.059,1.306
			c-0.866,0.871-1.299,1.949-1.299,3.235c0,1.278,0.433,2.352,1.299,3.223c0.867,0.871,1.886,1.306,3.059,1.306
			s2.201-0.441,3.085-1.326C570.284,352.755,570.481,352.523,570.797,352.138z"/>
		<path fill="#373534" d="M574.97,337.411h1.051v7.757c0.875-0.849,1.934-1.273,3.176-1.273c1.339,0,2.431,0.422,3.275,1.267
			c0.844,0.845,1.279,1.906,1.306,3.183v7.626h-1.05v-7.521c0-0.971-0.351-1.798-1.05-2.48c-0.7-0.683-1.527-1.024-2.481-1.024
			c-0.962,0-1.789,0.337-2.48,1.011c-0.315,0.306-0.547,0.625-0.695,0.958v9.057h-1.051V337.411z"/>
	</g>
</g>
</svg>
